<?xml version="1.0" standalone="no"?>
<!DOCTYPE svg PUBLIC "-//W3C//DTD SVG 20010904//EN"
 "http://www.w3.org/TR/2001/REC-SVG-20010904/DTD/svg10.dtd">
<svg version="1.0" xmlns="http://www.w3.org/2000/svg"
 width="406.000000pt" height="406.000000pt" viewBox="0 0 406.000000 406.000000"
 preserveAspectRatio="xMidYMid meet">
<metadata>
Created by potrace 1.11, written by Peter Selinger 2001-2013
</metadata>
<g transform="translate(0.000000,406.000000) scale(0.100000,-0.100000)"
fill="#000000" stroke="none">
<path d="M247 4045 c-98 -25 -169 -86 -216 -185 l-26 -55 -1 -1755 c0 -965 3
-1772 8 -1793 10 -47 40 -117 50 -117 5 0 8 -7 8 -15 0 -8 3 -15 8 -15 4 0 21
-13 37 -28 17 -15 53 -39 80 -52 l50 -25 1765 -1 c1574 -1 1770 0 1819 14 62
18 76 27 141 92 28 29 52 65 65 100 20 54 20 80 20 1820 0 1691 -1 1767 -18
1813 -31 79 -87 141 -164 179 l-68 33 -1757 1 c-1256 0 -1769 -3 -1801 -11z"/>
</g>
</svg>
